<?xml version="1.0" encoding="utf-8"?>
<!-- Generator: Adobe Illustrator 16.0.0, SVG Export Plug-In . SVG Version: 6.00 Build 0)  -->
<!DOCTYPE svg PUBLIC "-//W3C//DTD SVG 1.1//EN" "http://www.w3.org/Graphics/SVG/1.1/DTD/svg11.dtd">
<svg version="1.1" id="Layer_1" xmlns="http://www.w3.org/2000/svg" xmlns:xlink="http://www.w3.org/1999/xlink" x="0px" y="0px"
	 width="276.941px" height="80.416px" viewBox="0 4.417 276.941 80.416" enable-background="new 0 4.417 276.941 80.416"
	 xml:space="preserve">
<g opacity="0.6">
	<g>
		<g>
			<g>
				<defs>
					<rect id="SVGID_1_" x="12.974" y="10.789" width="34.044" height="29.884"/>
				</defs>
				<clipPath id="SVGID_2_">
					<use xlink:href="#SVGID_1_"  overflow="visible"/>
				</clipPath>
				<path clip-path="url(#SVGID_2_)" fill="#CC9B6B" d="M33.526,10.79c0.249,0.885-1.213,1.594-1.616,2.422
					c1.265-0.114,2.522-1.004,4.488-0.718c-0.231,0.728-0.994,0.921-1.348,1.526c0.986,0.689,2.586,0.764,3.591,1.437
					c1.063-1.479,1.948-3.14,4.667-2.963c0,0.3-0.292,0.307-0.27,0.629c2.527,0.893,4.502,3.26,3.861,6.729
					c-0.595-0.183-0.332-1.225-0.9-1.435c-0.132,2.582-0.635,5.111-3.588,5.117c-0.236-0.691,0.06-1.916-0.63-2.155
					c0.29-1.226,0.23-2.83-0.539-3.5c-0.256-1.591,2.01-1.351,1.437,0.089h0.54c-0.048,0.377,0.156,0.501,0.178,0.808
					c0.493-0.254,0.456-1.04,0.45-1.794c-0.45-0.478-1.148-0.707-2.065-0.717c-0.003-0.274,0.452-0.089,0.449-0.36
					c-0.86-0.307-1.254,0.588-1.616,1.077c0.311,2.034,0.875,3.936,1.079,6.012c0.085,0.883-0.145,2.001,0.088,2.782
					c0.693,2.328,4.476,2.65,4.488,5.475c-0.764,0.298-1.332-0.329-1.886-0.539c0.604,1.684,1.012,4.483-0.088,5.923
					c-0.263-0.634-0.541-1.254-0.629-2.064c-0.443,0.035-0.21,0.748-0.269,1.166c-0.61,0.917-1.084,1.968-1.975,2.604
					c-0.147-0.271-0.103-0.736-0.359-0.897c-1.147,0.495-1.706,1.585-3.588,1.346c-0.053-0.333,0.276-0.521,0.09-0.719
					c-0.675,0.264-1.493,1.136-2.423,1.438c-1.577-0.129-3.194-0.925-4.488-0.09c-1.145-0.313-2.668,0.24-3.23,1.076
					c-1.273-0.282-2.065-1.045-2.961-1.705c0.113,0.575,0.064,1.31,0.18,1.885c-1.953-1.277-3.386-3.078-3.41-6.283
					c-0.434,0.825-1.09,1.426-1.618,2.154c-0.969-2.094-0.46-4.063,0.361-5.653c0.279-0.542,0.84-1.025,1.075-1.616
					c0.853-2.146-2.109-4.502-0.537-7.088c-0.096-0.203-0.272-0.327-0.538-0.36c0.869-1.248-0.05-3.034-1.616-2.692
					c-1.209,0.263-1.688,2.355-0.718,3.321c0.14-0.919,0.056-3.041,1.347-2.782c1.199,0.241,0.144,3.266,0.627,4.576
					c0.068,0.306-0.362,0.115-0.269,0.45c-0.034,1.231,0.752,1.641,0.898,2.691c-1.088,0.943-2.875,0.163-3.412-1.077
					c-0.496-0.107-0.312,0.464-0.717,0.449c-0.849-1.55-2.05-3.583-1.616-5.833c-0.56,0.066-0.899,0.358-1.523,0.358
					c0.276-2.145,1.424-3.423,2.871-4.399c0.001-0.449-0.578-0.32-0.629-0.717c1.77-1.449,5.089-1.148,6.193,0.807
					c1.768-1.461,4.135-2.325,6.731-2.961c-0.555-0.582-1.872-0.403-2.514-0.896c1.005-0.712,2.908-0.385,4.037,0
					C30.602,11.993,31.704,11.032,33.526,10.79 M33.794,19.224c0.926-0.124,1.589,0.727,2.244,1.168
					C35.79,19.591,33.958,17.614,33.794,19.224 M27.781,19.403c-0.73,0.656-1.956,1.739-1.705,2.782
					c0.314-1.241,1.306-1.804,2.153-2.513C28.169,19.494,27.99,19.434,27.781,19.403 M36.666,22.365
					c0.152-0.93,0.654-2.659-0.449-2.961C36.293,20.464,36.574,21.32,36.666,22.365 M25.18,24.16
					c0.177-1.199,0.304-2.447,0.716-3.411C24.744,20.903,24.9,23.152,25.18,24.16 M34.781,25.236
					c0.334,0.205,0.985,0.092,0.898,0.719c-0.245,0.175-0.865-0.025-0.808,0.448c0.296,0.987,1.297,1.13,2.154,0.719
					C37.924,25.55,35.629,23.671,34.781,25.236 M28.858,26.764c-0.172-1.105-1.799-1.446-2.245-0.089
					c0.161,0.195,0.673,0.043,0.63,0.448c0.128,0.728-0.832,0.363-0.898,0.897C27.094,29.643,29.071,28.115,28.858,26.764
					 M29.216,28.916c0.799-0.077,2.082-0.402,2.782,0c-0.832,0.395-2.051,0.403-2.513,1.167c0.819-0.292,1.988-0.551,3.142-0.808
					c0.861-0.192,1.828-0.247,2.421-0.718c-1.337,0.022-2.59-0.039-3.678-0.269c0.604-0.504,2.283,0.069,2.693-0.628
					C32.169,27.481,30.095,27.793,29.216,28.916 M29.934,30.442c-0.196,0.089-1.269,0.826-1.256,1.434
					c0.021,1.067,2.467,2.117,3.501,2.153c1.335,0.05,2.63-1.075,3.23-1.793c1.455-1.741,0.062-2.835-2.424-2.513
					C32.001,29.849,30.887,30.015,29.934,30.442 M36.397,33.763c-0.433,0.571-0.999,1.013-1.616,1.615
					c-0.425,0.416-1.068,1.47-1.706,1.526c-0.456,0.038-1.314-0.511-1.884-0.718c-0.677-0.246-1.387-0.452-1.793-0.897
					c0.063-0.183,0.28-0.355,0.087-0.539c-0.766,0.11-1.372,0.828-1.437,1.347c0.426,0.006,0.527-0.313,0.809-0.448
					c0.105,0.283,0.465,0.311,0.627,0.538c0.828,0.14,1.468,0.292,2.063,0.538c0.464,0.192,0.741,0.579,1.078,0.718
					c1.08,0.447,1.326-0.679,1.794-1.166c0.76-0.79,2.002-1.782,2.872-2.514c-0.102-0.409-0.481-0.539-0.986-0.539
					C36.108,33.413,36.422,33.489,36.397,33.763"/>
			</g>
		</g>
	</g>
</g>
<path fill="#010101" d="M36.038,20.39c-0.656-0.441-1.318-1.29-2.245-1.166C33.958,17.613,35.79,19.591,36.038,20.39"/>
<path fill="#010101" d="M28.23,19.674c-0.847,0.708-1.839,1.271-2.153,2.512c-0.251-1.042,0.975-2.125,1.705-2.782
	C27.99,19.434,28.169,19.495,28.23,19.674"/>
<path fill="#010101" d="M36.217,19.403c1.103,0.303,0.601,2.031,0.449,2.961C36.574,21.32,36.293,20.464,36.217,19.403"/>
<path fill="#010101" d="M25.896,20.749c-0.412,0.963-0.539,2.212-0.715,3.411C24.9,23.151,24.744,20.902,25.896,20.749"/>
<path fill="#010101" d="M37.023,27.122c-0.857,0.412-1.858,0.269-2.153-0.719c-0.056-0.473,0.563-0.273,0.808-0.448
	c0.088-0.627-0.564-0.515-0.898-0.719C35.629,23.671,37.923,25.55,37.023,27.122"/>
<path fill="#010101" d="M26.346,28.02c0.067-0.533,1.027-0.169,0.898-0.898c0.043-0.404-0.469-0.252-0.63-0.449
	c0.445-1.356,2.071-1.014,2.245,0.091C29.071,28.115,27.094,29.642,26.346,28.02"/>
<path fill="#010101" d="M34.063,27.659c-0.41,0.697-2.09,0.125-2.693,0.628c1.088,0.229,2.341,0.291,3.678,0.269
	c-0.595,0.471-1.561,0.526-2.421,0.718c-1.153,0.258-2.323,0.519-3.142,0.808c0.461-0.764,1.682-0.772,2.513-1.167
	c-0.701-0.4-1.983-0.078-2.782,0C30.095,27.793,32.169,27.481,34.063,27.659"/>
<path fill="#010101" d="M32.987,29.723c2.485-0.321,3.878,0.773,2.423,2.512c-0.6,0.719-1.896,1.846-3.23,1.794
	c-1.033-0.039-3.48-1.085-3.501-2.153c-0.013-0.609,1.059-1.347,1.256-1.436C30.886,30.013,32,29.851,32.987,29.723 M29.576,32.056
	c0.205,0.512,0.669,0.768,1.167,0.988c0.352-0.905,1.027-1.487,1.528-2.244C31.183,30.677,30.009,31.226,29.576,32.056"/>
<path fill="#FFFFFF" d="M32.269,30.8c-0.499,0.758-1.176,1.339-1.527,2.244c-0.498-0.221-0.96-0.475-1.167-0.988
	C30.009,31.228,31.183,30.677,32.269,30.8"/>
<path fill="#010101" d="M36.306,33.224c0.507,0,0.885,0.13,0.986,0.539c-0.87,0.731-2.112,1.724-2.872,2.514
	c-0.469,0.487-0.713,1.613-1.794,1.166c-0.337-0.14-0.614-0.526-1.076-0.718c-0.597-0.247-1.237-0.398-2.063-0.538
	c-0.163-0.227-0.524-0.254-0.629-0.538c-0.282,0.134-0.385,0.455-0.808,0.449c0.064-0.519,0.671-1.237,1.437-1.347
	c0.19,0.184-0.026,0.356-0.09,0.539c0.408,0.444,1.117,0.652,1.794,0.897c0.57,0.206,1.426,0.758,1.884,0.718
	c0.638-0.056,1.28-1.111,1.705-1.526c0.619-0.602,1.184-1.044,1.616-1.615C36.421,33.489,36.108,33.413,36.306,33.224"/>
<g opacity="0.6">
	<g>
		<g>
			<g>
				<defs>
					<rect id="SVGID_3_" x="36.397" y="39.375" width="2.781" height="1.657"/>
				</defs>
				<clipPath id="SVGID_4_">
					<use xlink:href="#SVGID_3_"  overflow="visible"/>
				</clipPath>
				<path clip-path="url(#SVGID_4_)" fill="#CC9B6B" d="M39.18,41.032c-0.725-0.203-1.703-0.931-2.782-1.078
					C37.295,38.399,38.556,40.395,39.18,41.032"/>
			</g>
		</g>
	</g>
</g>
<g opacity="0.6">
	<g>
		<g>
			<g>
				<defs>
					<rect id="SVGID_5_" x="38.909" y="39.5" width="3.141" height="1.723"/>
				</defs>
				<clipPath id="SVGID_6_">
					<use xlink:href="#SVGID_5_"  overflow="visible"/>
				</clipPath>
				<path clip-path="url(#SVGID_6_)" fill="#CC9B6B" d="M38.909,39.505c1.303-0.077,2.491,0.738,3.14,1.615
					c-0.749-0.062-1.225,0.152-1.975,0.09C39.866,40.463,39.347,40.026,38.909,39.505"/>
			</g>
		</g>
	</g>
</g>
<g opacity="0.6">
	<g>
		<g>
			<g>
				<defs>
					<rect id="SVGID_7_" x="26.773" y="39.746" width="25.224" height="9.905"/>
				</defs>
				<clipPath id="SVGID_8_">
					<use xlink:href="#SVGID_7_"  overflow="visible"/>
				</clipPath>
				<path clip-path="url(#SVGID_8_)" fill="#CC9B6B" d="M50.576,49.197c0.093-0.548,0.632-0.978,0.356-1.615
					c-0.735,0.827-0.884,1.986-2.155,2.064c-1.29,0.08-2.093-0.979-2.78-1.886c-1.4,0.246-3.196,0.741-4.756,0.271
					c-0.283-0.19,0.425-0.875,0.539-1.257c-0.773,0.314-1.348,1.443-2.421,1.617c-1.548,0.249-2.505-1.026-3.681-1.528
					c-0.349,0.618,0.571,0.666,0.629,1.167c-4.147,0.34-7.139-1.169-8.795-3.321c-0.954-1.235-1.074-2.914,0.18-3.859
					c2.983-2.242,9.128-0.657,11.755,1.078c1.846-0.266,3.925-0.458,6.013-0.18c2.138,0.286,5.025,1.92,5.923,3.321
					C52.081,46.158,52.586,49.161,50.576,49.197"/>
			</g>
		</g>
	</g>
</g>
<g opacity="0.6">
	<g>
		<g>
			<g>
				<defs>
					<rect id="SVGID_9_" x="22.307" y="43.904" width="16.97" height="22.033"/>
				</defs>
				<clipPath id="SVGID_10_">
					<use xlink:href="#SVGID_9_"  overflow="visible"/>
				</clipPath>
				<path clip-path="url(#SVGID_10_)" fill="#CC9B6B" d="M26.166,43.902c0.315,0.438,0.649,1.118,1.166,1.613
					c0.105,0.104,0.331,0.094,0.448,0.183c0.413,0.307,0.62,0.935,0.988,1.168c0.391,0.241,0.874,0.283,1.257,0.534
					c0.727,0.482,1.85,1.356,3.322,0.989c0.396-0.067,0.168,0.487,0.448,0.538c1.911,0.249,3.148-0.357,4.755,0.089
					c0.44,0.945,0.659,2.03,0.63,3.232v9.51c0,0.321,0.134,0.555,0.088,0.808c-0.349,1.902-1.487,3.058-3.678,3.319
					c-0.88,0.106-1.931,0.029-2.873-0.179c0.452-1.625-0.168-2.714-0.897-3.679c-0.265-0.351-0.46-0.769-0.72-0.987
					c-0.253-0.22-0.621-0.238-0.897-0.45c-0.677-0.522-0.986-1.179-1.704-1.524c-0.49-0.24-1.003-0.268-1.347-0.72
					c-1.621-0.285-3.183-0.485-4.844-0.086c0.207-3.566,0.885-6.656,3.32-7.989C25.502,48.006,25.683,45.854,26.166,43.902
					 M31.729,48.567c-0.51,0.391-0.085,1.709-0.715,1.975c-0.379-0.19-0.604-0.532-1.167-0.536
					c-0.211,1.166-0.195,2.559-0.181,3.947c-0.485-0.297-1.309-0.122-1.885,0c0.001,1.585-0.03,3.202,0.719,4.039
					c-0.297-1.343-0.874-4.317,1.704-3.681c-0.14-1.038-0.237-2.81,0.271-3.499c0.555,0.224,0.8,0.752,1.435,0.896
					c-0.043-0.646-0.264-1.752,0.089-2.244c0.704,0.016,0.936,0.502,1.528,0.63C33.687,49.136,32.512,48.871,31.729,48.567"/>
			</g>
		</g>
	</g>
</g>
<path fill="#010101" d="M33.525,50.095c-0.592-0.13-0.823-0.616-1.527-0.631c-0.352,0.491-0.133,1.596-0.089,2.245
	c-0.633-0.142-0.881-0.673-1.435-0.897c-0.508,0.69-0.411,2.461-0.271,3.501c-2.579-0.639-2,2.338-1.706,3.679
	c-0.749-0.837-0.718-2.454-0.72-4.037c0.577-0.123,1.4-0.298,1.886,0c-0.012-1.389-0.03-2.78,0.182-3.947
	c0.563,0.002,0.788,0.348,1.166,0.535c0.63-0.266,0.208-1.585,0.715-1.973C32.511,48.871,33.687,49.136,33.525,50.095"/>
<g opacity="0.6">
	<g>
		<g>
			<g>
				<defs>
					<rect id="SVGID_11_" x="6.035" y="58.863" width="26.289" height="18.515"/>
				</defs>
				<clipPath id="SVGID_12_">
					<use xlink:href="#SVGID_11_"  overflow="visible"/>
				</clipPath>
				<path clip-path="url(#SVGID_12_)" fill="#CC9B6B" d="M25.537,68.132c0.181,0.327,0.926,0.09,1.077,0.45
					c-1.844,4.438-5.083,7.482-10.05,8.795c-0.066-0.56,0.566-0.858,0.717-1.347c0.354-1.139,0.093-2.779-0.18-3.951
					c-0.104-0.441-0.505-0.865-0.718-1.435c-0.202-0.536-0.202-1.089-0.448-1.523c-0.508-0.904-1.914-2.813-2.782-3.323
					c-0.364-0.211-0.823-0.25-1.167-0.358c-0.14-0.219-0.429-0.29-0.537-0.536c-2.193-0.514-4.141,0.129-4.847,1.794
					c-1.081-1.617-0.495-4.876,0.718-5.831c3.321-2.229,7.577-0.698,9.693,1.434c0.815,0.824,1.789,2.01,2.153,2.692
					c0.477,0.901,0.365,1.856,1.256,2.333c-0.309-1.965-1.564-3.759-2.604-5.295c2.1-1.221,4.837-3.448,8.167-3.137
					c1.967,0.179,4.182,1.944,5.205,3.229c0.999,1.255,1.78,2.947,0.359,4.308C30.297,67.626,27.792,68.008,25.537,68.132"/>
			</g>
		</g>
	</g>
</g>
<g opacity="0.88">
	<g>
		<g>
			<g>
				<defs>
					<rect id="SVGID_13_" x="7.297" y="65.34" width="9.411" height="12.166"/>
				</defs>
				<clipPath id="SVGID_14_">
					<use xlink:href="#SVGID_13_"  overflow="visible"/>
				</clipPath>
				<path clip-path="url(#SVGID_14_)" fill="#846745" d="M10.731,71.72c0.412-0.142,0.799,0.436,1.435,0.361
					c-0.705-1.036-2.599-1.611-3.681-2.692c-0.645-0.649-1.498-1.758-1.073-2.871c0.731-0.514,1.037-1.096,2.154-1.168
					c3.756-0.242,6.698,4.423,7.088,7.899c0.218,1.945-0.167,3.977-1.705,4.217C11.861,77.945,11.257,73.978,10.731,71.72"/>
			</g>
		</g>
	</g>
</g>
<path fill="#010101" d="M52.441,47.729c-0.025-0.526-0.006-1.06-0.082-1.576c-0.033-0.189-0.07-0.373-0.116-0.541
	c-0.03-0.093-0.062-0.183-0.097-0.275c-0.555-1.327-1.935-2.125-2.956-3.053c-0.055-0.05-0.102-0.102-0.142-0.155
	c-1.809-0.648-3.499-1.423-5.832-1.546c-0.401-0.407-0.864-0.751-1.346-1.08c0.125-0.351,0.623-1.031,0.931-1.251
	c0.195-0.14,0.289-0.133,0.509-0.013c0.049,0.027,0.44,0.487,0.358,0.487c0.233,0,0.67-0.253,0.802-0.455
	c0.181-0.28,0.264-0.624,0.405-0.923c0.419-0.89,0.953-1.573,0.982-2.611c0.016-0.599,0.07-1.209,0.032-1.806
	c-0.016-0.275,0.085-0.677,0.309-0.854c0.189-0.148,0.33-0.056,0.536-0.133c0.082-0.03,0.163-0.079,0.25-0.157
	c-0.164-1.812-1.019-2.93-1.964-3.964c-0.21-0.216-0.419-0.435-0.634-0.646c-0.046-0.05-0.088-0.102-0.125-0.158
	c-0.063-0.099-0.42-0.213-0.536-0.305c-0.155-0.123-0.281-0.279-0.426-0.416c-0.246-0.233-0.743-0.465-0.808-0.832
	c-0.048-0.28,0.094-0.763,0.307-0.895c0.303-0.184,0.796-0.086,1.132-0.255c0.368-0.188,0.665-0.635,1-0.887
	c0.309-0.231,0.645-0.413,0.893-0.711c0.249-0.299,0.412-0.661,0.497-1.037c0.041-0.185,0.204-0.977,0.035-1.115
	c0.328,0.27,0.411,0.784,0.896,0.897c0.016-0.104,0.143-0.096,0.271-0.088c0.167,0.011,0.401-1.968,0.388-2.169
	c-0.049-0.681-0.114-1.348-0.102-2.039c0.011-0.581-0.182-1.132-0.506-1.612c-0.452-0.667-0.728-1.322-1.394-1.837
	c-0.145-0.114-1.554-0.827-1.438-1.05c0.125-0.233,0.408-0.307,0.448-0.625c0.017-0.143-1.622-0.371-1.789-0.385
	c-0.632-0.051-1.274-0.003-1.881,0.178c-0.655,0.195-1.089,0.568-1.636,0.951c-0.216,0.156-0.426,0.248-0.612,0.449
	c-0.243,0.265-0.412,0.576-0.724,0.782c-0.743,0.084-1.215-0.101-1.523-0.451c0.441-0.542,1.273-0.699,1.345-1.614
	c-1.213-0.505-2.63-0.056-3.77-0.358c0.16-0.74,0.819-0.978,0.988-1.706c0.011-0.052-2.414,0.152-2.61,0.194
	c-0.838,0.183-1.735,0.383-2.391,0.971c-0.385,0.347-0.546,0.85-1.102,0.989c-0.245,0.062-0.545-0.072-0.806-0.091
	c-1.553-0.11-3.612-0.019-4.668,0.539c-0.304,0.841,0.955,0.898,1.256,1.436c-0.437,0.046-0.952,0.312-1.367,0.472
	c-0.621,0.24-1.647,1.177-2.341,1.047c-0.312-0.058-0.533-0.506-0.798-0.693c-0.309-0.218-0.665-0.366-1.038-0.425
	c-0.816-0.123-1.796-0.041-2.61,0.06c-0.576,0.069-1,0.391-1.518,0.594c-0.612,0.243-1.223,0.692-1.547,1.278
	c-0.031,0.06,0.773,0.257,0.658,0.563c-0.062,0.157-0.575,0.459-0.707,0.631c-0.536,0.687-0.791,1.488-1.213,2.231
	c-0.218,0.382-0.422,0.796-0.552,1.217c-0.036,0.119-0.257,1.375-0.067,1.37c0.409-0.012,0.792-0.331,1.198-0.301
	c0.52,0.036,0.382,0.495,0.464,0.878c0.109,0.504,0.108,1.027,0.229,1.528c0.116,0.496,0.42,0.834,0.625,1.285
	c0.244,0.526,0.536,1.02,0.856,1.502c0.101,0.154,0.811,1.4,0.936,1.388c0.353-0.035,0.186-0.592,0.449-0.718
	c0.489,0.454,1.876,1.091,2.604,0.449c0.357,0.15,0.478,0.538,0.898,0.629c-0.408,0.65-0.665,1.431-1.13,2.032
	c-0.265,0.341-0.369,0.718-0.469,1.13c-0.105,0.442-0.347,0.86-0.376,1.325c-0.021,0.346,0.557,4.629,0.986,4.486
	c0.655-0.214,0.805-0.931,1.257-1.347c0.621,1.412,1.531,2.539,2.243,3.86c1.204,0.292,1.626,1.366,2.781,1.704
	c0.131-0.549-0.239-1.072,0-1.434c0.26,0.161,0.602,0.236,0.809,0.448c0.079,0.084-0.62,1.754-0.685,1.967
	c-0.208,0.69-0.382,1.392-0.514,2.104c-0.139,0.771-0.233,1.553-0.281,2.337c-0.041,0.658,0.179,1.594-0.242,2.165
	c-0.259,0.353-0.614,0.569-0.848,0.946c-0.296,0.469-0.575,0.984-0.911,1.432c-0.415,0.552-0.625,0.894-0.744,1.561
	c-0.12,0.673-0.37,1.285-0.431,1.986c-0.044,0.512-0.01,1.077-0.138,1.58c-0.124,0.479-0.184,1.302-0.5,1.692
	c-0.094,0.111-0.833,0.229-1.037,0.35c-0.366,0.213-0.671,0.509-1.001,0.77c-0.558,0.443-1.134,1.169-1.821,1.394
	c-0.206,0.069-0.775-0.596-0.916-0.726c-0.259-0.237-0.512-0.413-0.816-0.581c-0.619-0.337-1.165-0.724-1.848-0.941
	c-0.777-0.251-1.65-0.207-2.452-0.117c-0.554,0.062-1.125,0.024-1.686,0.12c-1.769,0.301-3.806,1.799-4.106,3.646
	c-0.095,0.592-0.225,1.162-0.176,1.767c0.032,0.383,0.019,0.78,0.115,1.156c0.102,0.395,0.389,0.637,0.518,0.991
	c0.351,0.965,0.749,1.68,1.428,2.466c0.399,0.467,0.778,0.966,1.266,1.344c0.507,0.392,1.089,0.688,1.496,1.191
	c0.115,0.147,0.094,0.658,0.126,0.847c0.049,0.278,0.108,0.56,0.168,0.838c0.227,1.068,0.301,2.14,0.94,3.072
	c0.941,1.372,2.58,1.711,4.135,1.825c0.764,0.059,1.515-0.016,2.276-0.085c0.569-0.052,0.926-0.351,1.383-0.636
	c0.605-0.381,1.266-0.529,1.866-0.871c0.599-0.347,1.064-0.858,1.578-1.306c0.77-0.673,1.633-1.184,2.246-1.975
	c1.081-1.399,1.679-3.069,2.961-4.488c0.142-0.153,0.819-0.167,1.042-0.225c0.331-0.082,0.599-0.249,0.905-0.359
	c0.67-0.249,1.344-0.234,1.934-0.722c0.465-0.38,0.867-0.936,1.504-1.026c0.68-0.092,1.331,0.301,2.047,0.197
	c0.63-0.092,1.271-0.25,1.9-0.375c0.562,0.193,1.013,0.604,1.551,0.85c0.249,0.112,0.432,0.161,0.694,0.242v-0.894
	c-0.375-0.128-0.626-0.217-0.987-0.378c0.259-0.502,0.53-0.754,0.987-1.061c-0.044-0.197-0.039-0.42-0.021-0.621
	c-0.125,0.078-0.122,0.085-0.248,0.154c0.123-0.188,0.154-0.355,0.248-0.561c0-0.002,0.021-2.399,0.021-2.399
	c-0.039,0.316,0.065,0.572,0.018,0.826c-0.348,1.902-1.416,3.038-3.608,3.306c-0.878,0.102-1.93,0.026-2.872-0.184
	c0.452-1.624-0.167-2.715-0.896-3.68c-0.267-0.352-0.461-0.769-0.719-0.986c-0.255-0.218-0.623-0.237-0.897-0.45
	c-0.678-0.525-0.987-1.18-1.706-1.524c-0.49-0.24-1.003-0.265-1.344-0.718c-1.623-0.287-3.186-0.488-4.847-0.09
	c0.207-3.563,0.885-6.651,3.32-7.987c-0.127-2.264,0.055-4.418,0.537-6.371c0.317,0.437,0.65,1.121,1.165,1.615
	c0.107,0.099,0.332,0.091,0.449,0.179c0.413,0.305,0.62,0.938,0.989,1.168c0.391,0.243,0.873,0.283,1.256,0.535
	c0.727,0.48,1.852,1.354,3.322,0.99c0.396-0.07,0.168,0.487,0.448,0.535c1.913,0.25,3.148-0.356,4.755,0.094
	c0.44,0.944,0.662,2.025,0.63,3.228c-0.009,0.084,0.018,0.138,0.05,0.183c-0.039-0.905,0.061-3.4,0.062-3.41
	c0.001-0.033,4.413,0,4.763,0h1.465c0.562,0,0.842,0.389,1.281,0.671c0.106,0.067,0.191,0.169,0.286,0.248
	c0.287,0.229,0.802,0.315,1.161,0.315c0.376,0,0.802,0.044,1.164-0.042c0.249-0.061,0.384-0.189,0.583-0.313
	c0.136-0.086,0.271-0.245,0.428-0.281c0.135-0.031,0.336,0.031,0.473,0.052c0.374,0.052,0.656,0.022,0.936-0.259
	c0.402-0.402,0.578-0.987,0.616-1.544C52.447,47.818,52.444,47.773,52.441,47.729 M14.947,77.466
	c-3.086,0.479-3.692-3.488-4.219-5.746c0.412-0.142,0.801,0.436,1.437,0.361c-0.704-1.036-2.599-1.611-3.68-2.692
	c-0.647-0.649-1.498-1.758-1.075-2.871c0.731-0.514,1.038-1.096,2.151-1.168c3.759-0.242,6.702,4.423,7.09,7.899
	C16.87,75.195,16.487,77.226,14.947,77.466 M25.988,58.89c1.965,0.179,4.181,1.944,5.205,3.229c0.999,1.255,1.779,2.948,0.357,4.309
	c-1.251,1.195-3.756,1.579-6.011,1.705c0.18,0.327,0.925,0.09,1.076,0.446c-1.843,4.441-5.083,7.486-10.05,8.798
	c-0.066-0.561,0.567-0.859,0.717-1.347c0.355-1.142,0.094-2.778-0.178-3.95c-0.105-0.443-0.504-0.869-0.718-1.435
	c-0.202-0.537-0.202-1.088-0.448-1.526c-0.508-0.901-1.914-2.812-2.781-3.32c-0.365-0.214-0.825-0.25-1.168-0.355
	c-0.139-0.223-0.431-0.295-0.539-0.542c-2.192-0.511-4.14,0.13-4.845,1.797c-1.081-1.617-0.496-4.879,0.717-5.834
	c3.321-2.226,7.576-0.697,9.694,1.437c0.814,0.823,1.789,2.009,2.152,2.691c0.478,0.9,0.366,1.859,1.256,2.334
	c-0.31-1.964-1.563-3.76-2.604-5.296C19.919,60.809,22.657,58.583,25.988,58.89 M42.049,41.12c-0.749-0.061-1.224,0.152-1.975,0.091
	c-0.208-0.748-0.729-1.183-1.165-1.706C40.213,39.428,41.401,40.243,42.049,41.12 M39.18,41.032
	c-0.725-0.203-1.703-0.931-2.782-1.078C37.295,38.399,38.555,40.395,39.18,41.032 M24.462,38.788
	c0.114,0.575,0.065,1.311,0.181,1.885c-1.953-1.278-3.386-3.078-3.41-6.282c-0.434,0.825-1.09,1.425-1.617,2.154
	c-0.97-2.096-0.459-4.063,0.361-5.653c0.278-0.543,0.841-1.024,1.076-1.616c0.852-2.147-2.111-4.503-0.538-7.089
	c-0.096-0.203-0.272-0.327-0.538-0.361c0.869-1.246-0.049-3.032-1.616-2.691c-1.208,0.263-1.688,2.355-0.718,3.322
	c0.14-0.92,0.056-3.042,1.347-2.783c1.199,0.242,0.143,3.266,0.626,4.577c0.068,0.306-0.363,0.115-0.269,0.45
	c-0.035,1.232,0.752,1.641,0.897,2.691c-1.085,0.942-2.875,0.163-3.411-1.076c-0.497-0.108-0.312,0.464-0.718,0.449
	c-0.848-1.55-2.05-3.586-1.616-5.833c-0.558,0.067-0.898,0.358-1.523,0.358c0.276-2.144,1.425-3.421,2.871-4.398
	c0-0.448-0.578-0.319-0.628-0.717c1.77-1.45,5.087-1.148,6.191,0.806c1.768-1.46,4.136-2.324,6.731-2.96
	c-0.555-0.583-1.87-0.404-2.513-0.899c1.005-0.71,2.908-0.382,4.037,0c0.938-1.127,2.039-2.089,3.86-2.333
	c0.249,0.887-1.213,1.595-1.616,2.423c1.265-0.115,2.525-1.004,4.488-0.718c-0.231,0.728-0.994,0.921-1.348,1.527
	c0.988,0.689,2.586,0.764,3.591,1.436c1.065-1.478,1.948-3.139,4.667-2.962c0,0.3-0.291,0.307-0.268,0.628
	c2.525,0.894,4.502,3.261,3.86,6.73c-0.595-0.183-0.332-1.225-0.901-1.435c-0.131,2.582-0.635,5.111-3.588,5.117
	c-0.236-0.692,0.06-1.916-0.63-2.155c0.29-1.228,0.23-2.83-0.539-3.5c-0.256-1.591,2.009-1.351,1.437,0.089h0.539
	c-0.048,0.376,0.157,0.501,0.178,0.808c0.494-0.254,0.456-1.04,0.45-1.796c-0.45-0.476-1.148-0.706-2.066-0.717
	c-0.002-0.271,0.453-0.086,0.45-0.358c-0.86-0.308-1.254,0.588-1.616,1.075c0.311,2.035,0.877,3.938,1.079,6.013
	c0.085,0.882-0.143,2,0.087,2.782c0.694,2.328,4.477,2.65,4.489,5.475c-0.766,0.299-1.333-0.329-1.887-0.538
	c0.606,1.684,1.012,4.483-0.088,5.923c-0.263-0.634-0.54-1.254-0.628-2.064c-0.443,0.036-0.21,0.748-0.27,1.166
	c-0.609,0.916-1.083,1.968-1.974,2.604c-0.147-0.271-0.102-0.736-0.359-0.897c-1.147,0.496-1.705,1.583-3.587,1.346
	c-0.053-0.333,0.277-0.521,0.09-0.718c-0.675,0.263-1.493,1.136-2.423,1.437c-1.577-0.127-3.194-0.924-4.487-0.089
	c-1.146-0.313-2.668,0.24-3.231,1.077C26.151,40.21,25.355,39.447,24.462,38.788 M50.576,49.197
	c0.093-0.548,0.632-0.978,0.356-1.615c-0.735,0.827-0.884,1.986-2.155,2.064c-1.29,0.08-2.093-0.979-2.78-1.886
	c-1.4,0.246-3.196,0.741-4.756,0.271c-0.283-0.19,0.425-0.875,0.539-1.257c-0.773,0.314-1.348,1.443-2.421,1.617
	c-1.548,0.249-2.505-1.026-3.681-1.528c-0.349,0.618,0.571,0.666,0.629,1.167c-4.147,0.34-7.139-1.169-8.795-3.321
	c-0.954-1.235-1.074-2.914,0.18-3.859c2.983-2.242,9.128-0.657,11.755,1.078c1.846-0.266,3.925-0.458,6.013-0.18
	c2.138,0.286,5.025,1.92,5.923,3.321C52.081,46.158,52.586,49.161,50.576,49.197"/>
<polygon fill="#F2F2F2" points="39.18,72.516 39.18,48.893 39.692,48.893 55.415,67.005 55.415,48.893 57.745,48.893 57.745,72.516 
	57.212,72.516 41.619,54.63 41.619,72.516 "/>
<path fill="#F2F2F2" d="M71.291,48.891l11.017,23.625h-2.551l-3.715-7.771H65.865l-3.679,7.771h-2.634l11.16-23.625H71.291z
	 M70.991,53.914l-4.048,8.551h8.078L70.991,53.914z"/>
<polygon fill="#F2F2F2" points="84.129,72.516 84.129,48.893 84.645,48.893 100.368,67.005 100.368,48.893 102.695,48.893 
	102.695,72.516 102.165,72.516 86.572,54.63 86.572,72.516 "/>
<polygon fill="#F2F2F2" points="104.891,72.516 104.891,48.893 105.407,48.893 121.127,67.005 121.127,48.893 123.458,48.893 
	123.458,72.516 122.926,72.516 107.333,54.63 107.333,72.516 "/>
<polygon fill="#F2F2F2" points="125.488,48.893 128.206,48.893 134.248,58.638 140.201,48.893 142.929,48.893 135.446,61.225 
	135.446,72.516 133.118,72.516 133.118,61.225 "/>
<polygon fill="#6E6F71" points="145.626,48.893 158.683,48.893 158.683,53.327 154.377,53.327 154.377,72.516 149.82,72.516 
	149.82,53.327 145.626,53.327 "/>
<path fill="#6E6F71" d="M160.616,48.893h4.764c2.609,0,4.47,0.231,5.578,0.698c1.105,0.465,1.995,1.239,2.668,2.32
	c0.676,1.083,1.012,2.361,1.012,3.838c0,1.555-0.372,2.853-1.117,3.896c-0.743,1.041-1.865,1.836-3.362,2.367l5.594,10.505h-4.915
	l-5.31-10.004h-0.413v10.002h-4.497L160.616,48.893L160.616,48.893z M165.113,58.127h1.409c1.43,0,2.415-0.189,2.951-0.563
	c0.542-0.377,0.811-0.997,0.811-1.869c0-0.517-0.135-0.963-0.401-1.347c-0.267-0.382-0.625-0.656-1.074-0.822
	c-0.445-0.167-1.268-0.248-2.466-0.248h-1.229V58.127L165.113,58.127z"/>
<path fill="#6E6F71" d="M186.198,48.893h4.559l9.088,23.623h-4.676l-1.848-4.864h-9.639l-1.921,4.864h-4.675L186.198,48.893z
	 M188.508,55.157l-3.17,8.11h6.318L188.508,55.157z"/>
<path fill="#6E6F71" d="M220.808,53.043l-3.146,3c-2.138-2.26-4.546-3.394-7.219-3.394c-2.26,0-4.16,0.773-5.707,2.316
	c-1.547,1.54-2.318,3.444-2.318,5.706c0,1.573,0.345,2.973,1.03,4.194c0.685,1.225,1.647,2.181,2.9,2.876
	c1.253,0.696,2.643,1.047,4.173,1.047c1.306,0,2.5-0.244,3.578-0.732c1.083-0.489,2.269-1.374,3.565-2.661l3.046,3.183
	c-1.742,1.703-3.393,2.883-4.944,3.545c-1.553,0.655-3.322,0.985-5.316,0.985c-3.669,0-6.679-1.166-9.02-3.494
	c-2.338-2.328-3.506-5.311-3.506-8.955c0-2.353,0.529-4.446,1.595-6.277c1.067-1.832,2.595-3.306,4.577-4.417
	c1.988-1.113,4.13-1.668,6.418-1.668c1.947,0,3.824,0.412,5.628,1.235C217.949,50.355,219.502,51.527,220.808,53.043"/>
<polygon fill="#6E6F71" points="222.66,48.893 227.205,48.893 227.205,57.037 233.619,48.893 239.017,48.893 230.769,59.436 
	239.819,72.516 234.488,72.516 227.205,62.023 227.205,72.516 222.66,72.516 "/>
<polygon fill="#6E6F71" points="241.328,48.893 254.225,48.893 254.225,53.294 245.791,53.294 245.791,57.564 254.225,57.564 
	254.225,61.885 245.791,61.885 245.791,68.1 254.225,68.1 254.225,72.516 241.328,72.516 "/>
<path fill="#6E6F71" d="M255.949,48.893h4.764c2.607,0,4.468,0.231,5.574,0.698c1.105,0.465,1.999,1.239,2.67,2.32
	c0.677,1.083,1.013,2.361,1.013,3.838c0,1.555-0.374,2.853-1.117,3.896c-0.744,1.041-1.867,1.836-3.361,2.367l5.594,10.505h-4.917
	l-5.309-10.004h-0.413v10.002h-4.496L255.949,48.893L255.949,48.893z M260.445,58.127h1.409c1.429,0,2.416-0.189,2.952-0.563
	c0.537-0.377,0.807-0.997,0.807-1.869c0-0.517-0.132-0.963-0.398-1.347c-0.266-0.382-0.626-0.656-1.074-0.822
	c-0.445-0.167-1.271-0.248-2.465-0.248h-1.23V58.127L260.445,58.127z"/>
</svg>
